<?xml version="1.0" encoding="UTF-8" standalone="no"?>
<!-- Created with Inkscape (http://www.inkscape.org/) -->

<svg
   width="510"
   height="510"
   viewBox="0 0 134.93749 134.9375"
   version="1.1"
   id="svg5"
   sodipodi:docname="clock_illu.svg"
   inkscape:version="1.1 (c68e22c387, 2021-05-23)"
   xmlns:inkscape="http://www.inkscape.org/namespaces/inkscape"
   xmlns:sodipodi="http://sodipodi.sourceforge.net/DTD/sodipodi-0.dtd"
   xmlns="http://www.w3.org/2000/svg"
   xmlns:svg="http://www.w3.org/2000/svg">
  <sodipodi:namedview
     id="namedview6"
     pagecolor="#ffffff"
     bordercolor="#666666"
     borderopacity="1.0"
     inkscape:pageshadow="2"
     inkscape:pageopacity="0.0"
     inkscape:pagecheckerboard="0"
     inkscape:document-units="px"
     showgrid="false"
     inkscape:zoom="0.54929738"
     inkscape:cx="281.26841"
     inkscape:cy="129.25603"
     inkscape:window-width="1366"
     inkscape:window-height="706"
     inkscape:window-x="-8"
     inkscape:window-y="-8"
     inkscape:window-maximized="1"
     inkscape:current-layer="svg5"
     units="px" />
  <defs
     id="defs2">
    <inkscape:path-effect
       effect="skeletal"
       id="path-effect22721"
       is_visible="true"
       lpeversion="1"
       pattern="m -370.89851,-173.92445 a 8.2696375,8.1359565 0 0 0 -4.13482,-7.04595 8.2696375,8.1359565 0 0 0 -8.26964,0 8.2696375,8.1359565 0 0 0 -4.13482,7.04595 m 0,0 a 8.2696375,8.1359565 0 0 1 -4.13482,7.04594 8.2696375,8.1359565 0 0 1 -8.26963,0 8.2696375,8.1359565 0 0 1 -4.13482,-7.04594"
       copytype="repeated_stretched"
       prop_scale="1"
       scale_y_rel="false"
       spacing="0"
       normal_offset="0"
       tang_offset="0"
       prop_units="false"
       vertical_pattern="false"
       hide_knot="false"
       fuse_tolerance="0" />
  </defs>
  <path
     id="path22717"
     style="fill:none;stroke:#ffff00;stroke-width:1.02313;stroke-linecap:round;stroke-linejoin:round;stroke-opacity:1"
     d="m 116.08863,97.363857 c 2.40391,1.610243 5.53212,1.766533 8.23669,-0.0059 2.69174,-1.763994 4.28417,-5.045053 4.01213,-8.264083 -0.27365,-3.237964 -2.31939,-5.587312 -5.05644,-6.471668 -2.66994,-0.862674 -4.79305,-3.155259 -5.65003,-5.587274 -0.87018,-2.469487 -0.47873,-4.977605 1.10186,-7.036983 1.55409,-2.024836 4.26353,-3.56186 7.14564,-3.561863 M 91.519642,118.91313 c 1.266704,2.58937 3.888151,4.28929 7.128116,4.1224 3.222972,-0.16601 6.251302,-2.18073 7.638722,-5.08754 1.39375,-2.92008 0.82905,-6.00855 -1.085,-8.18713 -1.89741,-2.15964 -2.52513,-5.21028 -1.94794,-7.79712 0.58512,-2.622363 2.34207,-4.612818 4.86483,-5.524283 2.48746,-0.898711 5.58919,-0.670535 7.97026,0.9244 M 59.508515,123.92054 c -0.461104,2.83899 0.694714,5.74859 3.513763,7.47503 1.365196,0.83607 3.00377,1.30559 4.703665,1.32907 1.699848,-0.0235 3.338373,-0.49301 4.703534,-1.32906 2.819054,-1.72643 3.974878,-4.63603 3.51378,-7.47502 -0.456842,-2.81281 0.614541,-5.71332 2.38149,-7.57938 1.796074,-1.89682 4.237126,-2.69611 6.827581,-2.21137 2.555437,0.47819 5.110769,2.21473 6.367314,4.78332 m -61.269318,-9.15235 c -1.91406,2.17858 -2.478765,5.26705 -1.08502,8.18713 1.387414,2.90682 4.415743,4.92154 7.638713,5.08756 3.239964,0.16689 5.861415,-1.53302 7.128124,-4.12239 1.256549,-2.56859 3.811885,-4.30512 6.367324,-4.78331 2.590456,-0.48474 5.031507,0.31456 6.827577,2.21138 1.766945,1.86607 2.838322,4.76658 2.381473,7.57939 M 12.170847,82.622122 c -2.7370517,0.88435 -4.7828042,3.233694 -5.0564548,6.471658 -0.2720515,3.219029 1.3203755,6.500092 4.0121118,8.264091 2.70457,1.772411 5.832775,1.616127 8.236689,0.0059 2.381068,-1.594931 5.482807,-1.823101 7.970265,-0.924386 2.522758,0.91147 4.279706,2.901927 4.86482,5.524297 0.577186,2.58683 -0.05055,5.63747 -1.947954,7.79711 M 12.170927,50.249872 c -2.7345495,-0.883559 -5.7724442,-0.180019 -7.880642,2.305244 -2.0959391,2.47081 -2.7194338,6.130591 -1.5237709,9.177263 1.2044029,3.068944 3.8882971,4.703609 6.8068908,4.703615 0.014501,0 0.029003,4e-5 0.043504,1.19e-4 2.866658,0.01563 5.555973,1.547244 7.10213,3.561761 1.58059,2.059381 1.972026,4.567499 1.101843,7.036985 -0.856979,2.432013 -2.980099,4.724594 -5.650035,5.587263 m 18.079676,-59.51083 c -1.913794,-2.178305 -4.90484,-3.136854 -7.985844,-2.1367 -3.066936,0.995586 -5.461962,3.728551 -6.050469,6.900827 -0.591351,3.187599 0.745858,6.023039 3.149125,7.632854 2.384834,1.597473 3.765521,4.374734 3.877383,6.995649 0.113373,2.65633 -1.048791,4.988605 -3.208389,6.505657 -2.126553,1.493838 -5.191468,2.102971 -7.861402,1.240293 M 59.508776,8.9516629 C 59.046433,6.1049409 57.026488,3.7310496 53.845301,3.0003658 50.684955,2.2744679 47.193578,3.4030419 45.068358,5.824534 c -2.136277,2.4340893 -2.402698,5.545133 -1.135989,8.134521 1.253915,2.563245 1.065905,5.657985 -0.138376,7.991691 -1.222177,2.368384 -3.404293,3.84946 -6.071242,4.092842 -2.631392,0.240135 -5.573725,-0.771401 -7.472228,-2.932296 M 91.51988,13.959231 c 1.266726,-2.58938 1.000326,-5.7004255 -1.135934,-8.1345293 -2.125203,-2.4215066 -5.61657,-3.5501043 -8.77692,-2.8242289 -3.181192,0.7306611 -5.201154,3.1045368 -5.663518,5.9512544 -0.450589,2.7741958 -2.392886,5.2256118 -4.655534,6.4774998 -1.134859,0.6279 -2.345705,0.96702 -3.562031,0.990294 C 66.509732,16.39618 65.299008,16.057052 64.16426,15.429202 61.901622,14.177295 59.959343,11.725863 59.508776,8.9516629 M 116.08878,35.508608 c 2.40327,-1.6098 3.7405,-4.445231 3.14917,-7.632833 -0.58849,-3.17228 -2.98349,-5.905261 -6.05042,-6.900866 -3.081,-1.000174 -6.07205,-0.04164 -7.98586,2.136649 -1.89852,2.160883 -4.84086,3.172401 -7.472249,2.932248 -2.666948,-0.243398 -4.849056,-1.724489 -6.071219,-4.092881 -1.204266,-2.333715 -1.392256,-5.428457 -0.138322,-7.991694 m 34.3586,52.477168 c 2.9186,1.8e-5 5.60251,-1.634627 6.80694,-4.703564 1.19568,-3.046665 0.57221,-6.706454 -1.52371,-9.17728 -2.10818,-2.48528 -5.14607,-3.188842 -7.88063,-2.305303 -2.66994,0.862659 -5.73485,0.253504 -7.86139,-1.240348 -2.15958,-1.517066 -3.32173,-3.849348 -3.20834,-6.505675 0.11188,-2.620914 1.49258,-5.398164 3.87743,-6.995621"
     inkscape:path-effect="#path-effect22721"
     inkscape:original-d="M 125.87849,66.436113 A 58.15255,58.15255 0 0 1 67.725943,124.58868 58.15255,58.15255 0 0 1 9.5733985,66.436113 58.15255,58.15255 0 0 1 67.725943,8.2835651 58.15255,58.15255 0 0 1 125.87849,66.436113 Z" />
</svg>
